<mxfile host="app.diagrams.net" agent="Mozilla/5.0 (Windows NT 10.0; Win64; x64) AppleWebKit/537.36 (KHTML, like Gecko) Chrome/129.0.0.0 Safari/537.36" version="24.8.6">
  <diagram id="C5RBs43oDa-KdzZeNtuy" name="Page-1">
    <mxGraphModel dx="836" dy="443" grid="1" gridSize="10" guides="1" tooltips="1" connect="1" arrows="1" fold="1" page="1" pageScale="1" pageWidth="827" pageHeight="1169" math="0" shadow="0">
      <root>
        <mxCell id="WIyWlLk6GJQsqaUBKTNV-0" />
        <mxCell id="WIyWlLk6GJQsqaUBKTNV-1" parent="WIyWlLk6GJQsqaUBKTNV-0" />
        <mxCell id="d2KzV58xgMTFjty-cR8o-2" value="" style="edgeStyle=orthogonalEdgeStyle;rounded=0;orthogonalLoop=1;jettySize=auto;html=1;" edge="1" parent="WIyWlLk6GJQsqaUBKTNV-1" source="d2KzV58xgMTFjty-cR8o-0" target="d2KzV58xgMTFjty-cR8o-1">
          <mxGeometry relative="1" as="geometry" />
        </mxCell>
        <mxCell id="d2KzV58xgMTFjty-cR8o-0" value="bắt đầu&amp;nbsp;" style="ellipse;whiteSpace=wrap;html=1;" vertex="1" parent="WIyWlLk6GJQsqaUBKTNV-1">
          <mxGeometry x="354" y="80" width="120" height="80" as="geometry" />
        </mxCell>
        <mxCell id="d2KzV58xgMTFjty-cR8o-4" value="" style="edgeStyle=orthogonalEdgeStyle;rounded=0;orthogonalLoop=1;jettySize=auto;html=1;" edge="1" parent="WIyWlLk6GJQsqaUBKTNV-1" source="d2KzV58xgMTFjty-cR8o-1" target="d2KzV58xgMTFjty-cR8o-3">
          <mxGeometry relative="1" as="geometry" />
        </mxCell>
        <mxCell id="d2KzV58xgMTFjty-cR8o-1" value="nhập vào số abc" style="shape=parallelogram;perimeter=parallelogramPerimeter;whiteSpace=wrap;html=1;fixedSize=1;" vertex="1" parent="WIyWlLk6GJQsqaUBKTNV-1">
          <mxGeometry x="354" y="250" width="120" height="60" as="geometry" />
        </mxCell>
        <mxCell id="d2KzV58xgMTFjty-cR8o-6" value="" style="edgeStyle=orthogonalEdgeStyle;rounded=0;orthogonalLoop=1;jettySize=auto;html=1;" edge="1" parent="WIyWlLk6GJQsqaUBKTNV-1" source="d2KzV58xgMTFjty-cR8o-3" target="d2KzV58xgMTFjty-cR8o-5">
          <mxGeometry relative="1" as="geometry" />
        </mxCell>
        <mxCell id="d2KzV58xgMTFjty-cR8o-3" value="tính x = c*100" style="whiteSpace=wrap;html=1;" vertex="1" parent="WIyWlLk6GJQsqaUBKTNV-1">
          <mxGeometry x="354" y="390" width="120" height="60" as="geometry" />
        </mxCell>
        <mxCell id="d2KzV58xgMTFjty-cR8o-8" value="" style="edgeStyle=orthogonalEdgeStyle;rounded=0;orthogonalLoop=1;jettySize=auto;html=1;" edge="1" parent="WIyWlLk6GJQsqaUBKTNV-1" source="d2KzV58xgMTFjty-cR8o-5" target="d2KzV58xgMTFjty-cR8o-7">
          <mxGeometry relative="1" as="geometry" />
        </mxCell>
        <mxCell id="d2KzV58xgMTFjty-cR8o-5" value="tính y = b*10" style="whiteSpace=wrap;html=1;" vertex="1" parent="WIyWlLk6GJQsqaUBKTNV-1">
          <mxGeometry x="354" y="530" width="120" height="60" as="geometry" />
        </mxCell>
        <mxCell id="d2KzV58xgMTFjty-cR8o-10" value="" style="edgeStyle=orthogonalEdgeStyle;rounded=0;orthogonalLoop=1;jettySize=auto;html=1;" edge="1" parent="WIyWlLk6GJQsqaUBKTNV-1" source="d2KzV58xgMTFjty-cR8o-7" target="d2KzV58xgMTFjty-cR8o-9">
          <mxGeometry relative="1" as="geometry" />
        </mxCell>
        <mxCell id="d2KzV58xgMTFjty-cR8o-7" value="tính z = a" style="whiteSpace=wrap;html=1;" vertex="1" parent="WIyWlLk6GJQsqaUBKTNV-1">
          <mxGeometry x="354" y="670" width="120" height="60" as="geometry" />
        </mxCell>
        <mxCell id="d2KzV58xgMTFjty-cR8o-12" value="" style="edgeStyle=orthogonalEdgeStyle;rounded=0;orthogonalLoop=1;jettySize=auto;html=1;" edge="1" parent="WIyWlLk6GJQsqaUBKTNV-1" source="d2KzV58xgMTFjty-cR8o-9">
          <mxGeometry relative="1" as="geometry">
            <mxPoint x="414" y="950" as="targetPoint" />
          </mxGeometry>
        </mxCell>
        <mxCell id="d2KzV58xgMTFjty-cR8o-9" value="tính n = x + y + z" style="whiteSpace=wrap;html=1;" vertex="1" parent="WIyWlLk6GJQsqaUBKTNV-1">
          <mxGeometry x="354" y="810" width="120" height="60" as="geometry" />
        </mxCell>
        <mxCell id="d2KzV58xgMTFjty-cR8o-18" value="" style="edgeStyle=orthogonalEdgeStyle;rounded=0;orthogonalLoop=1;jettySize=auto;html=1;" edge="1" parent="WIyWlLk6GJQsqaUBKTNV-1" source="d2KzV58xgMTFjty-cR8o-13" target="d2KzV58xgMTFjty-cR8o-16">
          <mxGeometry relative="1" as="geometry" />
        </mxCell>
        <mxCell id="d2KzV58xgMTFjty-cR8o-13" value="in: số đảo ngược là n" style="shape=parallelogram;perimeter=parallelogramPerimeter;whiteSpace=wrap;html=1;fixedSize=1;" vertex="1" parent="WIyWlLk6GJQsqaUBKTNV-1">
          <mxGeometry x="336" y="950" width="156" height="60" as="geometry" />
        </mxCell>
        <mxCell id="d2KzV58xgMTFjty-cR8o-16" value="kết thúc" style="ellipse;whiteSpace=wrap;html=1;" vertex="1" parent="WIyWlLk6GJQsqaUBKTNV-1">
          <mxGeometry x="354" y="1080" width="120" height="80" as="geometry" />
        </mxCell>
      </root>
    </mxGraphModel>
  </diagram>
</mxfile>
